<svg width="107" height="96" viewBox="0 0 107 96" fill="none" xmlns="http://www.w3.org/2000/svg">
<path d="M74.6667 10.6667V53.3333C74.6667 59.2 69.8667 64 64 64H32C26.1333 64 21.3333 59.2 21.3333 53.3333V10.6667H74.6667ZM96 0H10.6667V53.3333C10.6667 65.12 20.2133 74.6667 32 74.6667H64C75.7867 74.6667 85.3333 65.12 85.3333 53.3333V37.3333H96C101.92 37.3333 106.667 32.5867 106.667 26.6667V10.6667C106.667 4.74667 101.92 0 96 0ZM85.3333 26.6667V10.6667H96V26.6667H85.3333ZM96 85.3333H0V96H96V85.3333Z" fill="#F8F8F8"/>
</svg>
